# MagicaVoxel @ Ephtracy

# group
o notestair1

# material
mtllib FinalMap-9-notestair1.mtl
usemtl palette

# normals
vn -1 0 0
vn 1 0 0
vn 0 0 1
vn 0 0 -1
vn 0 -1 0
vn 0 1 0

# texcoords
vt 0.00195312 0.5
vt 0.107422 0.5

# verts
v -16.8 33.7 -3.6
v -16.8 33.7 -4.3
v -16.8 33.8 -3.6
v -16.8 33.8 -4.3
v -16.8 34.3 -1.6
v -16.8 34.3 -2.6
v -16.8 34.4 -1.6
v -16.8 34.4 -2.6
v -16.8 34.9 0.4
v -16.8 34.9 -0.6
v -16.8 35 0.4
v -16.8 35 -0.6
v -16.8 35.2 1.4
v -16.8 35.2 0.4
v -16.8 35.3 1.4
v -16.8 35.3 0.4
v -16.8 35.8 3.4
v -16.8 35.8 2.4
v -16.8 35.9 3.4
v -16.8 35.9 2.4
v -16.8 36.4 5.4
v -16.8 36.4 4.4
v -16.8 36.5 5.4
v -16.8 36.5 4.4
v -16.8 37 7.4
v -16.8 37 6.4
v -16.8 37.1 7.4
v -16.8 37.1 6.4
v -16.8 37.6 9.4
v -16.8 37.6 8.4
v -16.8 37.7 9.4
v -16.8 37.7 8.4
v -16.8 38.2 11.4
v -16.8 38.2 10.4
v -16.8 38.3 11.4
v -16.8 38.3 10.4
v -16.8 38.8 13.4
v -16.8 38.8 12.4
v -16.8 38.9 13.4
v -16.8 38.9 12.4
v -16.8 39.1 14.4
v -16.8 39.1 13.4
v -16.8 39.2 14.4
v -16.8 39.2 13.4
v -16.8 39.7 16.4
v -16.8 39.7 15.4
v -16.8 39.8 16.4
v -16.8 39.8 15.4
v -15.8 34 -2.6
v -15.8 34 -3.6
v -15.8 34.1 -2.6
v -15.8 34.1 -3.6
v -15.8 34.6 -0.6
v -15.8 34.6 -1.6
v -15.8 34.7 -0.6
v -15.8 34.7 -1.6
v -15.8 35.5 2.4
v -15.8 35.5 1.4
v -15.8 35.6 2.4
v -15.8 35.6 1.4
v -15.8 36.1 4.4
v -15.8 36.1 3.4
v -15.8 36.2 4.4
v -15.8 36.2 3.4
v -15.8 36.7 6.4
v -15.8 36.7 5.4
v -15.8 36.8 6.4
v -15.8 36.8 5.4
v -15.8 37.9 10.4
v -15.8 37.9 9.4
v -15.8 38 10.4
v -15.8 38 9.4
v -15.8 38.5 12.4
v -15.8 38.5 11.4
v -15.8 38.6 12.4
v -15.8 38.6 11.4
v -15.8 39.4 15.4
v -15.8 39.4 14.4
v -15.8 39.5 15.4
v -15.8 39.5 14.4
v -15.8 40 17.4
v -15.8 40 16.4
v -15.8 40.1 17.4
v -15.8 40.1 16.4
v -14.2 33.7 -3.6
v -14.2 33.7 -4.3
v -14.2 33.8 -3.6
v -14.2 33.8 -4.3
v -14.2 34 -2.6
v -14.2 34 -3.6
v -14.2 34.1 -2.6
v -14.2 34.1 -3.6
v -14.2 34.3 -1.6
v -14.2 34.3 -2.6
v -14.2 34.4 -1.6
v -14.2 34.4 -2.6
v -14.2 34.6 -0.6
v -14.2 34.6 -1.6
v -14.2 34.7 -0.6
v -14.2 34.7 -1.6
v -14.2 34.9 0.4
v -14.2 34.9 -0.6
v -14.2 35 0.4
v -14.2 35 -0.6
v -14.2 35.2 1.4
v -14.2 35.2 0.4
v -14.2 35.3 1.4
v -14.2 35.3 0.4
v -14.2 35.5 2.4
v -14.2 35.5 1.4
v -14.2 35.6 2.4
v -14.2 35.6 1.4
v -14.2 35.8 3.4
v -14.2 35.8 2.4
v -14.2 35.9 3.4
v -14.2 35.9 2.4
v -14.2 36.1 4.4
v -14.2 36.1 3.4
v -14.2 36.2 4.4
v -14.2 36.2 3.4
v -14.2 36.4 5.4
v -14.2 36.4 4.4
v -14.2 36.5 5.4
v -14.2 36.5 4.4
v -14.2 36.7 6.4
v -14.2 36.7 5.4
v -14.2 36.8 6.4
v -14.2 36.8 5.4
v -14.2 37 7.4
v -14.2 37 6.4
v -14.2 37.1 7.4
v -14.2 37.1 6.4
v -14.2 37.6 9.4
v -14.2 37.6 8.4
v -14.2 37.7 9.4
v -14.2 37.7 8.4
v -14.2 37.9 10.4
v -14.2 37.9 9.4
v -14.2 38 10.4
v -14.2 38 9.4
v -14.2 38.2 11.4
v -14.2 38.2 10.4
v -14.2 38.3 11.4
v -14.2 38.3 10.4
v -14.2 38.5 12.4
v -14.2 38.5 11.4
v -14.2 38.6 12.4
v -14.2 38.6 11.4
v -14.2 38.8 13.4
v -14.2 38.8 12.4
v -14.2 38.9 13.4
v -14.2 38.9 12.4
v -14.2 39.1 14.4
v -14.2 39.1 13.4
v -14.2 39.2 14.4
v -14.2 39.2 13.4
v -14.2 39.4 15.4
v -14.2 39.4 14.4
v -14.2 39.5 15.4
v -14.2 39.5 14.4
v -14.2 39.7 16.4
v -14.2 39.7 15.4
v -14.2 39.8 16.4
v -14.2 39.8 15.4
v -14.2 40 17.4
v -14.2 40 16.4
v -14.2 40.1 17.4
v -14.2 40.1 16.4
v -15.8 40 17.4
v -15.8 40.1 17.4
v -14.2 40 17.4
v -14.2 40.1 17.4
v -16.8 39.7 16.4
v -16.8 39.8 16.4
v -14.2 39.7 16.4
v -14.2 39.8 16.4
v -15.8 39.4 15.4
v -15.8 39.5 15.4
v -14.2 39.4 15.4
v -14.2 39.5 15.4
v -16.8 39.1 14.4
v -16.8 39.2 14.4
v -14.2 39.1 14.4
v -14.2 39.2 14.4
v -16.8 38.8 13.4
v -16.8 38.9 13.4
v -14.2 38.8 13.4
v -14.2 38.9 13.4
v -15.8 38.5 12.4
v -15.8 38.6 12.4
v -14.2 38.5 12.4
v -14.2 38.6 12.4
v -16.8 38.2 11.4
v -16.8 38.3 11.4
v -14.2 38.2 11.4
v -14.2 38.3 11.4
v -15.8 37.9 10.4
v -15.8 38 10.4
v -14.2 37.9 10.4
v -14.2 38 10.4
v -16.8 37.6 9.4
v -16.8 37.7 9.4
v -14.2 37.6 9.4
v -14.2 37.7 9.4
v -16.8 37 7.4
v -16.8 37.1 7.4
v -14.2 37 7.4
v -14.2 37.1 7.4
v -15.8 36.7 6.4
v -15.8 36.8 6.4
v -14.2 36.7 6.4
v -14.2 36.8 6.4
v -16.8 36.4 5.4
v -16.8 36.5 5.4
v -14.2 36.4 5.4
v -14.2 36.5 5.4
v -15.8 36.1 4.4
v -15.8 36.2 4.4
v -14.2 36.1 4.4
v -14.2 36.2 4.4
v -16.8 35.8 3.4
v -16.8 35.9 3.4
v -14.2 35.8 3.4
v -14.2 35.9 3.4
v -15.8 35.5 2.4
v -15.8 35.6 2.4
v -14.2 35.5 2.4
v -14.2 35.6 2.4
v -16.8 35.2 1.4
v -16.8 35.3 1.4
v -14.2 35.2 1.4
v -14.2 35.3 1.4
v -16.8 34.9 0.4
v -16.8 35 0.4
v -14.2 34.9 0.4
v -14.2 35 0.4
v -15.8 34.6 -0.6
v -15.8 34.7 -0.6
v -14.2 34.6 -0.6
v -14.2 34.7 -0.6
v -16.8 34.3 -1.6
v -16.8 34.4 -1.6
v -14.2 34.3 -1.6
v -14.2 34.4 -1.6
v -15.8 34 -2.6
v -15.8 34.1 -2.6
v -14.2 34 -2.6
v -14.2 34.1 -2.6
v -16.8 33.7 -3.6
v -16.8 33.8 -3.6
v -14.2 33.7 -3.6
v -14.2 33.8 -3.6
v -15.8 40 16.4
v -15.8 40.1 16.4
v -14.2 40 16.4
v -14.2 40.1 16.4
v -16.8 39.7 15.4
v -16.8 39.8 15.4
v -14.2 39.7 15.4
v -14.2 39.8 15.4
v -15.8 39.4 14.4
v -15.8 39.5 14.4
v -14.2 39.4 14.4
v -14.2 39.5 14.4
v -16.8 39.1 13.4
v -16.8 39.2 13.4
v -14.2 39.1 13.4
v -14.2 39.2 13.4
v -16.8 38.8 12.4
v -16.8 38.9 12.4
v -14.2 38.8 12.4
v -14.2 38.9 12.4
v -15.8 38.5 11.4
v -15.8 38.6 11.4
v -14.2 38.5 11.4
v -14.2 38.6 11.4
v -16.8 38.2 10.4
v -16.8 38.3 10.4
v -14.2 38.2 10.4
v -14.2 38.3 10.4
v -15.8 37.9 9.4
v -15.8 38 9.4
v -14.2 37.9 9.4
v -14.2 38 9.4
v -16.8 37.6 8.4
v -16.8 37.7 8.4
v -14.2 37.6 8.4
v -14.2 37.7 8.4
v -16.8 37 6.4
v -16.8 37.1 6.4
v -14.2 37 6.4
v -14.2 37.1 6.4
v -15.8 36.7 5.4
v -15.8 36.8 5.4
v -14.2 36.7 5.4
v -14.2 36.8 5.4
v -16.8 36.4 4.4
v -16.8 36.5 4.4
v -14.2 36.4 4.4
v -14.2 36.5 4.4
v -15.8 36.1 3.4
v -15.8 36.2 3.4
v -14.2 36.1 3.4
v -14.2 36.2 3.4
v -16.8 35.8 2.4
v -16.8 35.9 2.4
v -14.2 35.8 2.4
v -14.2 35.9 2.4
v -15.8 35.5 1.4
v -15.8 35.6 1.4
v -14.2 35.5 1.4
v -14.2 35.6 1.4
v -16.8 35.2 0.4
v -16.8 35.3 0.4
v -14.2 35.2 0.4
v -14.2 35.3 0.4
v -16.8 34.9 -0.6
v -16.8 35 -0.6
v -14.2 34.9 -0.6
v -14.2 35 -0.6
v -15.8 34.6 -1.6
v -15.8 34.7 -1.6
v -14.2 34.6 -1.6
v -14.2 34.7 -1.6
v -16.8 34.3 -2.6
v -16.8 34.4 -2.6
v -14.2 34.3 -2.6
v -14.2 34.4 -2.6
v -15.8 34 -3.6
v -15.8 34.1 -3.6
v -14.2 34 -3.6
v -14.2 34.1 -3.6
v -16.8 33.7 -4.3
v -16.8 33.8 -4.3
v -14.2 33.7 -4.3
v -14.2 33.8 -4.3
v -16.8 33.7 -3.6
v -14.2 33.7 -3.6
v -16.8 33.7 -4.3
v -14.2 33.7 -4.3
v -15.8 34 -2.6
v -14.2 34 -2.6
v -15.8 34 -3.6
v -14.2 34 -3.6
v -16.8 34.3 -1.6
v -14.2 34.3 -1.6
v -16.8 34.3 -2.6
v -14.2 34.3 -2.6
v -15.8 34.6 -0.6
v -14.2 34.6 -0.6
v -15.8 34.6 -1.6
v -14.2 34.6 -1.6
v -16.8 34.9 0.4
v -14.2 34.9 0.4
v -16.8 34.9 -0.6
v -14.2 34.9 -0.6
v -16.8 35.2 1.4
v -14.2 35.2 1.4
v -16.8 35.2 0.4
v -14.2 35.2 0.4
v -15.8 35.5 2.4
v -14.2 35.5 2.4
v -15.8 35.5 1.4
v -14.2 35.5 1.4
v -16.8 35.8 3.4
v -14.2 35.8 3.4
v -16.8 35.8 2.4
v -14.2 35.8 2.4
v -15.8 36.1 4.4
v -14.2 36.1 4.4
v -15.8 36.1 3.4
v -14.2 36.1 3.4
v -16.8 36.4 5.4
v -14.2 36.4 5.4
v -16.8 36.4 4.4
v -14.2 36.4 4.4
v -15.8 36.7 6.4
v -14.2 36.7 6.4
v -15.8 36.7 5.4
v -14.2 36.7 5.4
v -16.8 37 7.4
v -14.2 37 7.4
v -16.8 37 6.4
v -14.2 37 6.4
v -16.8 37.6 9.4
v -14.2 37.6 9.4
v -16.8 37.6 8.4
v -14.2 37.6 8.4
v -15.8 37.9 10.4
v -14.2 37.9 10.4
v -15.8 37.9 9.4
v -14.2 37.9 9.4
v -16.8 38.2 11.4
v -14.2 38.2 11.4
v -16.8 38.2 10.4
v -14.2 38.2 10.4
v -15.8 38.5 12.4
v -14.2 38.5 12.4
v -15.8 38.5 11.4
v -14.2 38.5 11.4
v -16.8 38.8 13.4
v -14.2 38.8 13.4
v -16.8 38.8 12.4
v -14.2 38.8 12.4
v -16.8 39.1 14.4
v -14.2 39.1 14.4
v -16.8 39.1 13.4
v -14.2 39.1 13.4
v -15.8 39.4 15.4
v -14.2 39.4 15.4
v -15.8 39.4 14.4
v -14.2 39.4 14.4
v -16.8 39.7 16.4
v -14.2 39.7 16.4
v -16.8 39.7 15.4
v -14.2 39.7 15.4
v -15.8 40 17.4
v -14.2 40 17.4
v -15.8 40 16.4
v -14.2 40 16.4
v -16.8 33.8 -3.6
v -14.2 33.8 -3.6
v -16.8 33.8 -4.3
v -14.2 33.8 -4.3
v -15.8 34.1 -2.6
v -14.2 34.1 -2.6
v -15.8 34.1 -3.6
v -14.2 34.1 -3.6
v -16.8 34.4 -1.6
v -14.2 34.4 -1.6
v -16.8 34.4 -2.6
v -14.2 34.4 -2.6
v -15.8 34.7 -0.6
v -14.2 34.7 -0.6
v -15.8 34.7 -1.6
v -14.2 34.7 -1.6
v -16.8 35 0.4
v -14.2 35 0.4
v -16.8 35 -0.6
v -14.2 35 -0.6
v -16.8 35.3 1.4
v -14.2 35.3 1.4
v -16.8 35.3 0.4
v -14.2 35.3 0.4
v -15.8 35.6 2.4
v -14.2 35.6 2.4
v -15.8 35.6 1.4
v -14.2 35.6 1.4
v -16.8 35.9 3.4
v -14.2 35.9 3.4
v -16.8 35.9 2.4
v -14.2 35.9 2.4
v -15.8 36.2 4.4
v -14.2 36.2 4.4
v -15.8 36.2 3.4
v -14.2 36.2 3.4
v -16.8 36.5 5.4
v -14.2 36.5 5.4
v -16.8 36.5 4.4
v -14.2 36.5 4.4
v -15.8 36.8 6.4
v -14.2 36.8 6.4
v -15.8 36.8 5.4
v -14.2 36.8 5.4
v -16.8 37.1 7.4
v -14.2 37.1 7.4
v -16.8 37.1 6.4
v -14.2 37.1 6.4
v -16.8 37.7 9.4
v -14.2 37.7 9.4
v -16.8 37.7 8.4
v -14.2 37.7 8.4
v -15.8 38 10.4
v -14.2 38 10.4
v -15.8 38 9.4
v -14.2 38 9.4
v -16.8 38.3 11.4
v -14.2 38.3 11.4
v -16.8 38.3 10.4
v -14.2 38.3 10.4
v -15.8 38.6 12.4
v -14.2 38.6 12.4
v -15.8 38.6 11.4
v -14.2 38.6 11.4
v -16.8 38.9 13.4
v -14.2 38.9 13.4
v -16.8 38.9 12.4
v -14.2 38.9 12.4
v -16.8 39.2 14.4
v -14.2 39.2 14.4
v -16.8 39.2 13.4
v -14.2 39.2 13.4
v -15.8 39.5 15.4
v -14.2 39.5 15.4
v -15.8 39.5 14.4
v -14.2 39.5 14.4
v -16.8 39.8 16.4
v -14.2 39.8 16.4
v -16.8 39.8 15.4
v -14.2 39.8 15.4
v -15.8 40.1 17.4
v -14.2 40.1 17.4
v -15.8 40.1 16.4
v -14.2 40.1 16.4

# faces
f 3/2/1 2/2/1 1/2/1
f 4/2/1 2/2/1 3/2/1
f 7/2/1 6/2/1 5/2/1
f 8/2/1 6/2/1 7/2/1
f 11/2/1 10/2/1 9/2/1
f 12/2/1 10/2/1 11/2/1
f 15/2/1 14/2/1 13/2/1
f 16/2/1 14/2/1 15/2/1
f 19/2/1 18/2/1 17/2/1
f 20/2/1 18/2/1 19/2/1
f 23/2/1 22/2/1 21/2/1
f 24/2/1 22/2/1 23/2/1
f 27/2/1 26/2/1 25/2/1
f 28/2/1 26/2/1 27/2/1
f 31/2/1 30/2/1 29/2/1
f 32/2/1 30/2/1 31/2/1
f 35/2/1 34/2/1 33/2/1
f 36/2/1 34/2/1 35/2/1
f 39/2/1 38/2/1 37/2/1
f 40/2/1 38/2/1 39/2/1
f 43/2/1 42/2/1 41/2/1
f 44/2/1 42/2/1 43/2/1
f 47/2/1 46/2/1 45/2/1
f 48/2/1 46/2/1 47/2/1
f 51/1/1 50/1/1 49/1/1
f 52/1/1 50/1/1 51/1/1
f 55/1/1 54/1/1 53/1/1
f 56/1/1 54/1/1 55/1/1
f 59/1/1 58/1/1 57/1/1
f 60/1/1 58/1/1 59/1/1
f 63/1/1 62/1/1 61/1/1
f 64/1/1 62/1/1 63/1/1
f 67/1/1 66/1/1 65/1/1
f 68/1/1 66/1/1 67/1/1
f 71/1/1 70/1/1 69/1/1
f 72/1/1 70/1/1 71/1/1
f 75/1/1 74/1/1 73/1/1
f 76/1/1 74/1/1 75/1/1
f 79/1/1 78/1/1 77/1/1
f 80/1/1 78/1/1 79/1/1
f 83/1/1 82/1/1 81/1/1
f 84/1/1 82/1/1 83/1/1
f 85/2/2 86/2/2 87/2/2
f 87/2/2 86/2/2 88/2/2
f 89/1/2 90/1/2 91/1/2
f 91/1/2 90/1/2 92/1/2
f 93/2/2 94/2/2 95/2/2
f 95/2/2 94/2/2 96/2/2
f 97/1/2 98/1/2 99/1/2
f 99/1/2 98/1/2 100/1/2
f 101/2/2 102/2/2 103/2/2
f 103/2/2 102/2/2 104/2/2
f 105/2/2 106/2/2 107/2/2
f 107/2/2 106/2/2 108/2/2
f 109/1/2 110/1/2 111/1/2
f 111/1/2 110/1/2 112/1/2
f 113/2/2 114/2/2 115/2/2
f 115/2/2 114/2/2 116/2/2
f 117/1/2 118/1/2 119/1/2
f 119/1/2 118/1/2 120/1/2
f 121/2/2 122/2/2 123/2/2
f 123/2/2 122/2/2 124/2/2
f 125/1/2 126/1/2 127/1/2
f 127/1/2 126/1/2 128/1/2
f 129/2/2 130/2/2 131/2/2
f 131/2/2 130/2/2 132/2/2
f 133/2/2 134/2/2 135/2/2
f 135/2/2 134/2/2 136/2/2
f 137/1/2 138/1/2 139/1/2
f 139/1/2 138/1/2 140/1/2
f 141/2/2 142/2/2 143/2/2
f 143/2/2 142/2/2 144/2/2
f 145/1/2 146/1/2 147/1/2
f 147/1/2 146/1/2 148/1/2
f 149/2/2 150/2/2 151/2/2
f 151/2/2 150/2/2 152/2/2
f 153/2/2 154/2/2 155/2/2
f 155/2/2 154/2/2 156/2/2
f 157/1/2 158/1/2 159/1/2
f 159/1/2 158/1/2 160/1/2
f 161/2/2 162/2/2 163/2/2
f 163/2/2 162/2/2 164/2/2
f 165/1/2 166/1/2 167/1/2
f 167/1/2 166/1/2 168/1/2
f 171/1/3 170/1/3 169/1/3
f 172/1/3 170/1/3 171/1/3
f 175/2/3 174/2/3 173/2/3
f 176/2/3 174/2/3 175/2/3
f 179/1/3 178/1/3 177/1/3
f 180/1/3 178/1/3 179/1/3
f 183/2/3 182/2/3 181/2/3
f 184/2/3 182/2/3 183/2/3
f 187/2/3 186/2/3 185/2/3
f 188/2/3 186/2/3 187/2/3
f 191/1/3 190/1/3 189/1/3
f 192/1/3 190/1/3 191/1/3
f 195/2/3 194/2/3 193/2/3
f 196/2/3 194/2/3 195/2/3
f 199/1/3 198/1/3 197/1/3
f 200/1/3 198/1/3 199/1/3
f 203/2/3 202/2/3 201/2/3
f 204/2/3 202/2/3 203/2/3
f 207/2/3 206/2/3 205/2/3
f 208/2/3 206/2/3 207/2/3
f 211/1/3 210/1/3 209/1/3
f 212/1/3 210/1/3 211/1/3
f 215/2/3 214/2/3 213/2/3
f 216/2/3 214/2/3 215/2/3
f 219/1/3 218/1/3 217/1/3
f 220/1/3 218/1/3 219/1/3
f 223/2/3 222/2/3 221/2/3
f 224/2/3 222/2/3 223/2/3
f 227/1/3 226/1/3 225/1/3
f 228/1/3 226/1/3 227/1/3
f 231/2/3 230/2/3 229/2/3
f 232/2/3 230/2/3 231/2/3
f 235/2/3 234/2/3 233/2/3
f 236/2/3 234/2/3 235/2/3
f 239/1/3 238/1/3 237/1/3
f 240/1/3 238/1/3 239/1/3
f 243/2/3 242/2/3 241/2/3
f 244/2/3 242/2/3 243/2/3
f 247/1/3 246/1/3 245/1/3
f 248/1/3 246/1/3 247/1/3
f 251/2/3 250/2/3 249/2/3
f 252/2/3 250/2/3 251/2/3
f 253/1/4 254/1/4 255/1/4
f 255/1/4 254/1/4 256/1/4
f 257/2/4 258/2/4 259/2/4
f 259/2/4 258/2/4 260/2/4
f 261/1/4 262/1/4 263/1/4
f 263/1/4 262/1/4 264/1/4
f 265/2/4 266/2/4 267/2/4
f 267/2/4 266/2/4 268/2/4
f 269/2/4 270/2/4 271/2/4
f 271/2/4 270/2/4 272/2/4
f 273/1/4 274/1/4 275/1/4
f 275/1/4 274/1/4 276/1/4
f 277/2/4 278/2/4 279/2/4
f 279/2/4 278/2/4 280/2/4
f 281/1/4 282/1/4 283/1/4
f 283/1/4 282/1/4 284/1/4
f 285/2/4 286/2/4 287/2/4
f 287/2/4 286/2/4 288/2/4
f 289/2/4 290/2/4 291/2/4
f 291/2/4 290/2/4 292/2/4
f 293/1/4 294/1/4 295/1/4
f 295/1/4 294/1/4 296/1/4
f 297/2/4 298/2/4 299/2/4
f 299/2/4 298/2/4 300/2/4
f 301/1/4 302/1/4 303/1/4
f 303/1/4 302/1/4 304/1/4
f 305/2/4 306/2/4 307/2/4
f 307/2/4 306/2/4 308/2/4
f 309/1/4 310/1/4 311/1/4
f 311/1/4 310/1/4 312/1/4
f 313/2/4 314/2/4 315/2/4
f 315/2/4 314/2/4 316/2/4
f 317/2/4 318/2/4 319/2/4
f 319/2/4 318/2/4 320/2/4
f 321/1/4 322/1/4 323/1/4
f 323/1/4 322/1/4 324/1/4
f 325/2/4 326/2/4 327/2/4
f 327/2/4 326/2/4 328/2/4
f 329/1/4 330/1/4 331/1/4
f 331/1/4 330/1/4 332/1/4
f 333/2/4 334/2/4 335/2/4
f 335/2/4 334/2/4 336/2/4
f 339/2/5 338/2/5 337/2/5
f 340/2/5 338/2/5 339/2/5
f 343/1/5 342/1/5 341/1/5
f 344/1/5 342/1/5 343/1/5
f 347/2/5 346/2/5 345/2/5
f 348/2/5 346/2/5 347/2/5
f 351/1/5 350/1/5 349/1/5
f 352/1/5 350/1/5 351/1/5
f 355/2/5 354/2/5 353/2/5
f 356/2/5 354/2/5 355/2/5
f 359/2/5 358/2/5 357/2/5
f 360/2/5 358/2/5 359/2/5
f 363/1/5 362/1/5 361/1/5
f 364/1/5 362/1/5 363/1/5
f 367/2/5 366/2/5 365/2/5
f 368/2/5 366/2/5 367/2/5
f 371/1/5 370/1/5 369/1/5
f 372/1/5 370/1/5 371/1/5
f 375/2/5 374/2/5 373/2/5
f 376/2/5 374/2/5 375/2/5
f 379/1/5 378/1/5 377/1/5
f 380/1/5 378/1/5 379/1/5
f 383/2/5 382/2/5 381/2/5
f 384/2/5 382/2/5 383/2/5
f 387/2/5 386/2/5 385/2/5
f 388/2/5 386/2/5 387/2/5
f 391/1/5 390/1/5 389/1/5
f 392/1/5 390/1/5 391/1/5
f 395/2/5 394/2/5 393/2/5
f 396/2/5 394/2/5 395/2/5
f 399/1/5 398/1/5 397/1/5
f 400/1/5 398/1/5 399/1/5
f 403/2/5 402/2/5 401/2/5
f 404/2/5 402/2/5 403/2/5
f 407/2/5 406/2/5 405/2/5
f 408/2/5 406/2/5 407/2/5
f 411/1/5 410/1/5 409/1/5
f 412/1/5 410/1/5 411/1/5
f 415/2/5 414/2/5 413/2/5
f 416/2/5 414/2/5 415/2/5
f 419/1/5 418/1/5 417/1/5
f 420/1/5 418/1/5 419/1/5
f 421/2/6 422/2/6 423/2/6
f 423/2/6 422/2/6 424/2/6
f 425/1/6 426/1/6 427/1/6
f 427/1/6 426/1/6 428/1/6
f 429/2/6 430/2/6 431/2/6
f 431/2/6 430/2/6 432/2/6
f 433/1/6 434/1/6 435/1/6
f 435/1/6 434/1/6 436/1/6
f 437/2/6 438/2/6 439/2/6
f 439/2/6 438/2/6 440/2/6
f 441/2/6 442/2/6 443/2/6
f 443/2/6 442/2/6 444/2/6
f 445/1/6 446/1/6 447/1/6
f 447/1/6 446/1/6 448/1/6
f 449/2/6 450/2/6 451/2/6
f 451/2/6 450/2/6 452/2/6
f 453/1/6 454/1/6 455/1/6
f 455/1/6 454/1/6 456/1/6
f 457/2/6 458/2/6 459/2/6
f 459/2/6 458/2/6 460/2/6
f 461/1/6 462/1/6 463/1/6
f 463/1/6 462/1/6 464/1/6
f 465/2/6 466/2/6 467/2/6
f 467/2/6 466/2/6 468/2/6
f 469/2/6 470/2/6 471/2/6
f 471/2/6 470/2/6 472/2/6
f 473/1/6 474/1/6 475/1/6
f 475/1/6 474/1/6 476/1/6
f 477/2/6 478/2/6 479/2/6
f 479/2/6 478/2/6 480/2/6
f 481/1/6 482/1/6 483/1/6
f 483/1/6 482/1/6 484/1/6
f 485/2/6 486/2/6 487/2/6
f 487/2/6 486/2/6 488/2/6
f 489/2/6 490/2/6 491/2/6
f 491/2/6 490/2/6 492/2/6
f 493/1/6 494/1/6 495/1/6
f 495/1/6 494/1/6 496/1/6
f 497/2/6 498/2/6 499/2/6
f 499/2/6 498/2/6 500/2/6
f 501/1/6 502/1/6 503/1/6
f 503/1/6 502/1/6 504/1/6
