# MagicaVoxel @ Ephtracy

# group
o swing1

# material
mtllib FinalMap-32-swing1.mtl
usemtl palette

# normals
vn -1 0 0
vn 1 0 0
vn 0 0 1
vn 0 0 -1
vn 0 -1 0
vn 0 1 0

# texcoords
vt 0.205078 0.5
vt 0.521484 0.5
vt 0.525391 0.5
vt 0.537109 0.5
vt 0.544922 0.5

# verts
v -11.5 16.4 9.4
v -11.5 16.4 8.4
v -11.5 16.5 9.5
v -11.5 16.5 9.4
v -11.5 16.5 8.4
v -11.5 16.5 8.3
v -11.5 16.7 9.5
v -11.5 16.7 9.4
v -11.5 16.7 8.4
v -11.5 16.7 8.3
v -11.4 16.3 9.4
v -11.4 16.3 8.4
v -11.4 16.4 9.5
v -11.4 16.4 9.4
v -11.4 16.4 8.4
v -11.4 16.4 8.3
v -11.4 16.5 9.5
v -11.4 16.5 9.4
v -11.4 16.5 8.4
v -11.4 16.5 8.3
v -11.2 16.6 9.5
v -11.2 16.6 8.3
v -11.2 16.7 9.5
v -11.2 16.7 8.3
v -10.9 16.6 9.5
v -10.9 16.6 8.3
v -10.9 16.7 9.5
v -10.9 16.7 8.3
v -10.6 16.6 9.5
v -10.6 16.6 8.3
v -10.6 16.7 9.5
v -10.6 16.7 8.3
v -10.3 16.6 9.5
v -10.3 16.6 8.3
v -10.3 16.7 9.5
v -10.3 16.7 8.3
v -10 16.6 9.5
v -10 16.6 9.4
v -10 16.6 8.4
v -10 16.6 8.3
v -10 16.7 9.5
v -10 16.7 9.4
v -10 16.7 8.4
v -10 16.7 8.3
v -11.3 16.6 9.5
v -11.3 16.6 8.3
v -11.3 16.7 9.5
v -11.3 16.7 8.3
v -11 16.6 9.5
v -11 16.6 8.3
v -11 16.7 9.5
v -11 16.7 8.3
v -10.7 16.6 9.5
v -10.7 16.6 8.3
v -10.7 16.7 9.5
v -10.7 16.7 8.3
v -10.4 16.6 9.5
v -10.4 16.6 8.3
v -10.4 16.7 9.5
v -10.4 16.7 8.3
v -10.1 16.6 9.5
v -10.1 16.6 8.3
v -10.1 16.7 9.5
v -10.1 16.7 8.3
v -10 16.3 9.4
v -10 16.3 8.4
v -10 16.4 9.5
v -10 16.4 9.4
v -10 16.4 8.4
v -10 16.4 8.3
v -10 16.5 9.5
v -10 16.5 9.4
v -10 16.5 8.4
v -10 16.5 8.3
v -9.9 16.4 9.4
v -9.9 16.4 8.4
v -9.9 16.5 9.5
v -9.9 16.5 9.4
v -9.9 16.5 8.4
v -9.9 16.5 8.3
v -9.9 16.7 9.5
v -9.9 16.7 9.4
v -9.9 16.7 8.4
v -9.9 16.7 8.3
v -11.5 16.5 9.5
v -11.5 16.7 9.5
v -11.4 16.4 9.5
v -11.4 16.5 9.5
v -11.4 16.7 9.5
v -11.3 16.5 9.5
v -11.3 16.6 9.5
v -11.3 16.7 9.5
v -11.2 16.5 9.5
v -11.2 16.6 9.5
v -11.2 16.7 9.5
v -11 16.5 9.5
v -11 16.6 9.5
v -11 16.7 9.5
v -10.9 16.5 9.5
v -10.9 16.6 9.5
v -10.9 16.7 9.5
v -10.7 16.5 9.5
v -10.7 16.6 9.5
v -10.7 16.7 9.5
v -10.6 16.5 9.5
v -10.6 16.6 9.5
v -10.6 16.7 9.5
v -10.4 16.5 9.5
v -10.4 16.6 9.5
v -10.4 16.7 9.5
v -10.3 16.5 9.5
v -10.3 16.6 9.5
v -10.3 16.7 9.5
v -10.1 16.5 9.5
v -10.1 16.6 9.5
v -10.1 16.7 9.5
v -10 16.4 9.5
v -10 16.5 9.5
v -10 16.6 9.5
v -10 16.7 9.5
v -9.9 16.5 9.5
v -9.9 16.7 9.5
v -11.5 16.4 9.4
v -11.5 16.5 9.4
v -11.4 16.3 9.4
v -11.4 16.4 9.4
v -11.4 16.5 9.4
v -10 16.3 9.4
v -10 16.4 9.4
v -10 16.5 9.4
v -9.9 16.4 9.4
v -9.9 16.5 9.4
v -11.5 16.4 8.4
v -11.5 16.5 8.4
v -11.4 16.3 8.4
v -11.4 16.4 8.4
v -11.4 16.5 8.4
v -10 16.3 8.4
v -10 16.4 8.4
v -10 16.5 8.4
v -9.9 16.4 8.4
v -9.9 16.5 8.4
v -11.5 16.5 8.3
v -11.5 16.7 8.3
v -11.4 16.4 8.3
v -11.4 16.5 8.3
v -11.4 16.7 8.3
v -11.3 16.5 8.3
v -11.3 16.6 8.3
v -11.3 16.7 8.3
v -11.2 16.5 8.3
v -11.2 16.6 8.3
v -11.2 16.7 8.3
v -11 16.5 8.3
v -11 16.6 8.3
v -11 16.7 8.3
v -10.9 16.5 8.3
v -10.9 16.6 8.3
v -10.9 16.7 8.3
v -10.7 16.5 8.3
v -10.7 16.6 8.3
v -10.7 16.7 8.3
v -10.6 16.5 8.3
v -10.6 16.6 8.3
v -10.6 16.7 8.3
v -10.4 16.5 8.3
v -10.4 16.6 8.3
v -10.4 16.7 8.3
v -10.3 16.5 8.3
v -10.3 16.6 8.3
v -10.3 16.7 8.3
v -10.1 16.5 8.3
v -10.1 16.6 8.3
v -10.1 16.7 8.3
v -10 16.4 8.3
v -10 16.5 8.3
v -10 16.6 8.3
v -10 16.7 8.3
v -9.9 16.5 8.3
v -9.9 16.7 8.3
v -11.4 16.3 9.4
v -10 16.3 9.4
v -11.4 16.3 8.4
v -10 16.3 8.4
v -11.4 16.4 9.5
v -10 16.4 9.5
v -11.5 16.4 9.4
v -11.4 16.4 9.4
v -10 16.4 9.4
v -9.9 16.4 9.4
v -11.5 16.4 8.4
v -11.4 16.4 8.4
v -10 16.4 8.4
v -9.9 16.4 8.4
v -11.4 16.4 8.3
v -10 16.4 8.3
v -11.5 16.5 9.5
v -11.4 16.5 9.5
v -10 16.5 9.5
v -9.9 16.5 9.5
v -11.5 16.5 9.4
v -11.4 16.5 9.4
v -10 16.5 9.4
v -9.9 16.5 9.4
v -11.5 16.5 8.4
v -11.4 16.5 8.4
v -10 16.5 8.4
v -9.9 16.5 8.4
v -11.5 16.5 8.3
v -11.4 16.5 8.3
v -10 16.5 8.3
v -9.9 16.5 8.3
v -11.3 16.6 9.5
v -11.2 16.6 9.5
v -11 16.6 9.5
v -10.9 16.6 9.5
v -10.7 16.6 9.5
v -10.6 16.6 9.5
v -10.4 16.6 9.5
v -10.3 16.6 9.5
v -10.1 16.6 9.5
v -10 16.6 9.5
v -10 16.6 9.4
v -10 16.6 8.4
v -11.3 16.6 8.3
v -11.2 16.6 8.3
v -11 16.6 8.3
v -10.9 16.6 8.3
v -10.7 16.6 8.3
v -10.6 16.6 8.3
v -10.4 16.6 8.3
v -10.3 16.6 8.3
v -10.1 16.6 8.3
v -10 16.6 8.3
v -11.5 16.7 9.5
v -11.4 16.7 9.5
v -11.3 16.7 9.5
v -11.2 16.7 9.5
v -11 16.7 9.5
v -10.9 16.7 9.5
v -10.7 16.7 9.5
v -10.6 16.7 9.5
v -10.4 16.7 9.5
v -10.3 16.7 9.5
v -10.1 16.7 9.5
v -10 16.7 9.5
v -9.9 16.7 9.5
v -11.5 16.7 9.4
v -11.4 16.7 9.4
v -10 16.7 9.4
v -9.9 16.7 9.4
v -11.5 16.7 8.4
v -11.4 16.7 8.4
v -10 16.7 8.4
v -9.9 16.7 8.4
v -11.5 16.7 8.3
v -11.4 16.7 8.3
v -11.3 16.7 8.3
v -11.2 16.7 8.3
v -11 16.7 8.3
v -10.9 16.7 8.3
v -10.7 16.7 8.3
v -10.6 16.7 8.3
v -10.4 16.7 8.3
v -10.3 16.7 8.3
v -10.1 16.7 8.3
v -10 16.7 8.3
v -9.9 16.7 8.3

# faces
f 4/3/1 2/3/1 1/3/1
f 5/3/1 2/3/1 4/3/1
f 7/2/1 4/2/1 3/2/1
f 8/4/1 5/4/1 4/4/1
f 8/2/1 4/2/1 7/2/1
f 9/2/1 6/2/1 5/2/1
f 9/4/1 5/4/1 8/4/1
f 10/2/1 6/2/1 9/2/1
f 14/3/1 12/3/1 11/3/1
f 15/3/1 12/3/1 14/3/1
f 17/5/1 14/5/1 13/5/1
f 18/5/1 14/5/1 17/5/1
f 19/3/1 16/3/1 15/3/1
f 20/3/1 16/3/1 19/3/1
f 23/4/1 22/4/1 21/4/1
f 24/4/1 22/4/1 23/4/1
f 27/4/1 26/4/1 25/4/1
f 28/4/1 26/4/1 27/4/1
f 31/4/1 30/4/1 29/4/1
f 32/4/1 30/4/1 31/4/1
f 35/4/1 34/4/1 33/4/1
f 36/4/1 34/4/1 35/4/1
f 41/2/1 38/2/1 37/2/1
f 42/4/1 39/4/1 38/4/1
f 42/2/1 38/2/1 41/2/1
f 43/2/1 40/2/1 39/2/1
f 43/4/1 39/4/1 42/4/1
f 44/2/1 40/2/1 43/2/1
f 45/4/2 46/4/2 47/4/2
f 47/4/2 46/4/2 48/4/2
f 49/4/2 50/4/2 51/4/2
f 51/4/2 50/4/2 52/4/2
f 53/4/2 54/4/2 55/4/2
f 55/4/2 54/4/2 56/4/2
f 57/4/2 58/4/2 59/4/2
f 59/4/2 58/4/2 60/4/2
f 61/4/2 62/4/2 63/4/2
f 63/4/2 62/4/2 64/4/2
f 65/3/2 66/3/2 68/3/2
f 68/3/2 66/3/2 69/3/2
f 67/5/2 68/5/2 71/5/2
f 71/5/2 68/5/2 72/5/2
f 69/3/2 70/3/2 73/3/2
f 73/3/2 70/3/2 74/3/2
f 75/3/2 76/3/2 78/3/2
f 78/3/2 76/3/2 79/3/2
f 77/2/2 78/2/2 81/2/2
f 78/4/2 79/4/2 82/4/2
f 81/2/2 78/2/2 82/2/2
f 79/2/2 80/2/2 83/2/2
f 82/4/2 79/4/2 83/4/2
f 83/2/2 80/2/2 84/2/2
f 88/2/3 86/2/3 85/2/3
f 89/2/3 86/2/3 88/2/3
f 90/5/3 88/5/3 87/5/3
f 90/4/3 89/4/3 88/4/3
f 91/4/3 89/4/3 90/4/3
f 92/4/3 89/4/3 91/4/3
f 93/5/3 90/5/3 87/5/3
f 93/5/3 91/5/3 90/5/3
f 94/5/3 91/5/3 93/5/3
f 96/5/3 93/5/3 87/5/3
f 96/4/3 95/4/3 94/4/3
f 96/4/3 94/4/3 93/4/3
f 97/4/3 95/4/3 96/4/3
f 98/4/3 95/4/3 97/4/3
f 99/5/3 96/5/3 87/5/3
f 99/5/3 97/5/3 96/5/3
f 100/5/3 97/5/3 99/5/3
f 102/5/3 99/5/3 87/5/3
f 102/4/3 101/4/3 100/4/3
f 102/4/3 100/4/3 99/4/3
f 103/4/3 101/4/3 102/4/3
f 104/4/3 101/4/3 103/4/3
f 105/5/3 102/5/3 87/5/3
f 105/5/3 103/5/3 102/5/3
f 106/5/3 103/5/3 105/5/3
f 108/5/3 105/5/3 87/5/3
f 108/4/3 107/4/3 106/4/3
f 108/4/3 106/4/3 105/4/3
f 109/4/3 107/4/3 108/4/3
f 110/4/3 107/4/3 109/4/3
f 111/5/3 108/5/3 87/5/3
f 111/5/3 109/5/3 108/5/3
f 112/5/3 109/5/3 111/5/3
f 114/5/3 111/5/3 87/5/3
f 114/4/3 113/4/3 112/4/3
f 114/4/3 112/4/3 111/4/3
f 115/4/3 113/4/3 114/4/3
f 116/4/3 113/4/3 115/4/3
f 117/5/3 114/5/3 87/5/3
f 117/5/3 115/5/3 114/5/3
f 118/5/3 115/5/3 117/5/3
f 119/5/3 115/5/3 118/5/3
f 121/2/3 120/2/3 119/2/3
f 121/2/3 119/2/3 118/2/3
f 122/2/3 120/2/3 121/2/3
f 126/3/3 124/3/3 123/3/3
f 127/3/3 124/3/3 126/3/3
f 128/3/3 126/3/3 125/3/3
f 129/3/3 126/3/3 128/3/3
f 131/3/3 130/3/3 129/3/3
f 132/3/3 130/3/3 131/3/3
f 133/3/4 134/3/4 136/3/4
f 136/3/4 134/3/4 137/3/4
f 135/3/4 136/3/4 138/3/4
f 138/3/4 136/3/4 139/3/4
f 139/3/4 140/3/4 141/3/4
f 141/3/4 140/3/4 142/3/4
f 143/2/4 144/2/4 146/2/4
f 146/2/4 144/2/4 147/2/4
f 145/3/4 146/3/4 148/3/4
f 146/4/4 147/4/4 148/4/4
f 148/4/4 147/4/4 149/4/4
f 149/4/4 147/4/4 150/4/4
f 145/3/4 148/3/4 151/3/4
f 148/5/4 149/5/4 151/5/4
f 151/5/4 149/5/4 152/5/4
f 145/3/4 151/3/4 154/3/4
f 152/4/4 153/4/4 154/4/4
f 151/4/4 152/4/4 154/4/4
f 154/4/4 153/4/4 155/4/4
f 155/4/4 153/4/4 156/4/4
f 145/3/4 154/3/4 157/3/4
f 154/5/4 155/5/4 157/5/4
f 157/5/4 155/5/4 158/5/4
f 145/3/4 157/3/4 160/3/4
f 158/4/4 159/4/4 160/4/4
f 157/4/4 158/4/4 160/4/4
f 160/4/4 159/4/4 161/4/4
f 161/4/4 159/4/4 162/4/4
f 145/3/4 160/3/4 163/3/4
f 160/5/4 161/5/4 163/5/4
f 163/5/4 161/5/4 164/5/4
f 145/3/4 163/3/4 166/3/4
f 164/4/4 165/4/4 166/4/4
f 163/4/4 164/4/4 166/4/4
f 166/4/4 165/4/4 167/4/4
f 167/4/4 165/4/4 168/4/4
f 145/3/4 166/3/4 169/3/4
f 166/5/4 167/5/4 169/5/4
f 169/5/4 167/5/4 170/5/4
f 145/3/4 169/3/4 172/3/4
f 170/4/4 171/4/4 172/4/4
f 169/4/4 170/4/4 172/4/4
f 172/4/4 171/4/4 173/4/4
f 173/4/4 171/4/4 174/4/4
f 145/3/4 172/3/4 175/3/4
f 172/5/4 173/5/4 176/5/4
f 175/3/4 172/3/4 176/3/4
f 176/5/4 173/5/4 177/5/4
f 177/2/4 178/2/4 179/2/4
f 176/2/4 177/2/4 179/2/4
f 179/2/4 178/2/4 180/2/4
f 183/3/5 182/3/5 181/3/5
f 184/3/5 182/3/5 183/3/5
f 188/5/5 186/5/5 185/5/5
f 189/5/5 186/5/5 188/5/5
f 191/3/5 188/3/5 187/3/5
f 192/3/5 188/3/5 191/3/5
f 193/3/5 190/3/5 189/3/5
f 194/3/5 190/3/5 193/3/5
f 195/3/5 193/3/5 192/3/5
f 196/3/5 193/3/5 195/3/5
f 201/2/5 198/2/5 197/2/5
f 202/2/5 198/2/5 201/2/5
f 203/2/5 200/2/5 199/2/5
f 204/2/5 200/2/5 203/2/5
f 209/2/5 206/2/5 205/2/5
f 210/2/5 206/2/5 209/2/5
f 211/2/5 208/2/5 207/2/5
f 212/2/5 208/2/5 211/2/5
f 221/5/6 222/5/6 223/5/6
f 221/5/6 223/5/6 224/5/6
f 213/5/6 214/5/6 225/5/6
f 225/5/6 214/5/6 226/5/6
f 215/5/6 216/5/6 227/5/6
f 227/5/6 216/5/6 228/5/6
f 217/5/6 218/5/6 229/5/6
f 229/5/6 218/5/6 230/5/6
f 219/5/6 220/5/6 231/5/6
f 231/5/6 220/5/6 232/5/6
f 221/5/6 224/5/6 233/5/6
f 233/5/6 224/5/6 234/5/6
f 235/2/6 236/2/6 248/2/6
f 236/4/6 237/4/6 249/4/6
f 248/2/6 236/2/6 249/2/6
f 246/2/6 247/2/6 250/2/6
f 250/2/6 247/2/6 251/2/6
f 248/4/6 249/4/6 252/4/6
f 249/4/6 237/4/6 253/4/6
f 252/4/6 249/4/6 253/4/6
f 250/4/6 251/4/6 254/4/6
f 254/4/6 251/4/6 255/4/6
f 252/2/6 253/2/6 256/2/6
f 253/4/6 237/4/6 257/4/6
f 256/2/6 253/2/6 257/2/6
f 257/4/6 237/4/6 258/4/6
f 238/4/6 239/4/6 259/4/6
f 259/4/6 239/4/6 260/4/6
f 240/4/6 241/4/6 261/4/6
f 261/4/6 241/4/6 262/4/6
f 242/4/6 243/4/6 263/4/6
f 263/4/6 243/4/6 264/4/6
f 244/4/6 245/4/6 265/4/6
f 265/4/6 245/4/6 266/4/6
f 254/2/6 255/2/6 267/2/6
f 267/2/6 255/2/6 268/2/6
